{
	"asset":{
		"version":"2.0",
		"generator":"Created using the official Cinema 4D glTF Exporter 1.000x284978"
	},
	"scenes":[{
		"nodes":[0]
	}],
	"nodes":[{
		"scale":[1.0,
		1.0,
		1.0],
		"name":"Null.1",
		"translation":[0.009258801117539406,
		29.501121520996095,
		-3.2354884147644045],
		"rotation":[0.0,
		0.0,
		0.0,
		-1.0],
		"mesh":0
	}],
	"meshes":[{
		"name":"Null.1",
		"primitives":[{
			"attributes":{
				"POSITION":1,
				"NORMAL":2,
				"TEXCOORD_0":3
			},
			"indices":0
		}]
	}],
	"accessors":[{
		"bufferView":0,
		"type":"SCALAR",
		"componentType":5123,
		"count":198645,
		"byteOffset":0,
		"min":[0],
		"max":[57271]
	},
	{
		"bufferView":1,
		"type":"VEC3",
		"componentType":5126,
		"count":57272,
		"byteOffset":0,
		"min":[-100.97745513916016,
		-26.435585021972658,
		-222.33096313476563],
		"max":[100.95893859863281,
		98.86186218261719,
		225.8093719482422]
	},
	{
		"bufferView":1,
		"type":"VEC3",
		"componentType":5126,
		"count":57272,
		"byteOffset":12,
		"min":[-1.0,
		-1.0,
		-1.0],
		"max":[1.0,
		1.0,
		1.0]
	},
	{
		"bufferView":1,
		"type":"VEC2",
		"componentType":5126,
		"count":57272,
		"byteOffset":24,
		"min":[-3.598412036895752,
		-1.8026843070983887],
		"max":[4.59841251373291,
		3.1931943893432619]
	}],
	"bufferViews":[{
		"buffer":0,
		"byteOffset":0,
		"byteLength":397290,
		"target":34963
	},
	{
		"buffer":0,
		"byteOffset":397292,
		"byteLength":1832704,
		"target":34962,
		"byteStride":32
	}],
	"buffers":[{
		"uri":"data:application/octet-stream;base64,",
		"byteLength":2229996
	}]
}