{
	"asset":{
		"version":"2.0",
		"generator":"Created using the official Cinema 4D glTF Exporter 1.000x284978"
	},
	"scenes":[{
		"nodes":[0]
	}],
	"nodes":[{
		"scale":[1.0,
		1.0,
		1.0],
		"name":"exterior",
		"translation":[0.0,
		0.0,
		-4.403344631195068],
		"rotation":[0.0,
		0.0,
		0.0,
		-1.0],
		"mesh":0
	}],
	"meshes":[{
		"name":"exterior",
		"primitives":[{
			"attributes":{
				"POSITION":1,
				"NORMAL":2,
				"TEXCOORD_0":3
			},
			"indices":0
		}]
	}],
	"accessors":[{
		"type":"SCALAR",
		"bufferView":0,
		"componentType":5123,
		"count":175845,
		"byteOffset":0,
		"min":[0],
		"max":[59851]
	},
	{
		"type":"VEC3",
		"bufferView":1,
		"componentType":5126,
		"count":59852,
		"byteOffset":0,
		"min":[-100.96820068359375,
		14.334502220153809,
		-221.16310119628907],
		"max":[100.96820068359375,
		128.3629913330078,
		226.97723388671876]
	},
	{
		"type":"VEC3",
		"bufferView":1,
		"componentType":5126,
		"count":59852,
		"byteOffset":12,
		"min":[-1.0,
		-1.0,
		-1.0],
		"max":[1.0,
		1.0,
		1.0]
	},
	{
		"type":"VEC2",
		"bufferView":1,
		"componentType":5126,
		"count":59852,
		"byteOffset":24,
		"min":[-3.598412036895752,
		-1.8026843070983887],
		"max":[4.59841251373291,
		3.1931943893432619]
	}],
	"bufferViews":[{
		"buffer":0,
		"byteOffset":0,
		"byteLength":351690,
		"target":34963
	},
	{
		"buffer":0,
		"byteOffset":351692,
		"byteLength":1915264,
		"target":34962,
		"byteStride":32
	}],
	"buffers":[{
		"uri":"data:application/octet-stream;base64,",
		"byteLength":2266956
	}]
}