{
	"asset":{
		"version":"2.0",
		"generator":"Created using the official Cinema 4D glTF Exporter 1.000x284978"
	},
	"scenes":[{
		"nodes":[0]
	}],
	"nodes":[{
		"name":"Car",
		"mesh":0
	}],
	"meshes":[{
		"name":"Car",
		"primitives":[{
			"attributes":{
				"POSITION":1,
				"NORMAL":2,
				"TEXCOORD_0":3
			},
			"indices":0
		}]
	}],
	"accessors":[{
		"bufferView":0,
		"type":"SCALAR",
		"componentType":5123,
		"count":235800,
		"byteOffset":0,
		"min":[0],
		"max":[44475]
	},
	{
		"bufferView":1,
		"type":"VEC3",
		"componentType":5126,
		"count":44476,
		"byteOffset":0,
		"min":[-106.2952651977539,
		16.231637954711915,
		-246.97706604003907],
		"max":[106.2952651977539,
		146.580810546875,
		247.00009155273438]
	},
	{
		"bufferView":1,
		"type":"VEC3",
		"componentType":5126,
		"count":44476,
		"byteOffset":12,
		"min":[-1.0,
		-1.0,
		-1.0],
		"max":[1.0,
		1.0,
		1.0]
	},
	{
		"bufferView":1,
		"type":"VEC2",
		"componentType":5126,
		"count":44476,
		"byteOffset":24,
		"min":[0.0,
		0.0],
		"max":[0.9916770458221436,
		1.0]
	}],
	"bufferViews":[{
		"buffer":0,
		"byteOffset":0,
		"byteLength":471600,
		"target":34963
	},
	{
		"buffer":0,
		"byteOffset":471600,
		"byteLength":1423232,
		"target":34962,
		"byteStride":32
	}],
	"buffers":[{
		"uri":"data:application/octet-stream;base64,",
		"byteLength":1894832
	}]
}