{
	"asset":{
		"version":"2.0",
		"generator":"Created using the official Cinema 4D glTF Exporter 1.000x284978"
	},
	"scenes":[{
		"nodes":[0]
	}],
	"nodes":[{
		"name":"Wheel",
		"mesh":0
	}],
	"meshes":[{
		"name":"Wheel",
		"primitives":[{
			"attributes":{
				"POSITION":1,
				"NORMAL":2,
				"TEXCOORD_0":3
			},
			"indices":0
		}]
	}],
	"accessors":[{
		"bufferView":0,
		"type":"SCALAR",
		"componentType":5123,
		"count":63924,
		"byteOffset":0,
		"min":[0],
		"max":[10994]
	},
	{
		"bufferView":1,
		"type":"VEC3",
		"componentType":5126,
		"count":10995,
		"byteOffset":0,
		"min":[-10.980823516845704,
		-34.31878662109375,
		-34.317100524902347],
		"max":[11.64393138885498,
		34.30571365356445,
		34.3073844909668]
	},
	{
		"bufferView":1,
		"type":"VEC3",
		"componentType":5126,
		"count":10995,
		"byteOffset":12,
		"min":[-1.0,
		-1.0,
		-1.0],
		"max":[1.0,
		1.0,
		1.0]
	},
	{
		"bufferView":1,
		"type":"VEC2",
		"componentType":5126,
		"count":10995,
		"byteOffset":24,
		"min":[0.0,
		0.002201557159423828],
		"max":[0.949670672416687,
		1.0]
	}],
	"bufferViews":[{
		"buffer":0,
		"byteOffset":0,
		"byteLength":127848,
		"target":34963
	},
	{
		"buffer":0,
		"byteOffset":127848,
		"byteLength":351840,
		"target":34962,
		"byteStride":32
	}],
	"buffers":[{
		"uri":"data:application/octet-stream;base64,",
		"byteLength":479688
	}]
}