{
	"asset":{
		"version":"2.0",
		"generator":"Created using the official Cinema 4D glTF Exporter 1.000x284978"
	},
	"scenes":[{
		"nodes":[0]
	}],
	"nodes":[{
		"name":"Wheel",
		"mesh":0
	}],
	"meshes":[{
		"name":"Wheel",
		"primitives":[{
			"attributes":{
				"POSITION":1,
				"NORMAL":2,
				"TEXCOORD_0":3
			},
			"indices":0
		}]
	}],
	"accessors":[{
		"type":"SCALAR",
		"bufferView":0,
		"componentType":5123,
		"count":4908,
		"byteOffset":0,
		"min":[0],
		"max":[1406]
	},
	{
		"type":"VEC3",
		"bufferView":1,
		"componentType":5126,
		"count":1407,
		"byteOffset":0,
		"min":[-14.584113121032715,
		-33.81086730957031,
		-33.92409896850586],
		"max":[11.512269020080567,
		34.18913269042969,
		34.07590103149414]
	},
	{
		"type":"VEC3",
		"bufferView":1,
		"componentType":5126,
		"count":1407,
		"byteOffset":12,
		"min":[-1.0,
		-1.0,
		-1.0],
		"max":[1.0,
		1.0,
		1.0]
	},
	{
		"type":"VEC2",
		"bufferView":1,
		"componentType":5126,
		"count":1407,
		"byteOffset":24,
		"min":[0.0,
		0.0],
		"max":[1.0,
		1.0]
	}],
	"bufferViews":[{
		"buffer":0,
		"byteOffset":0,
		"byteLength":9816,
		"target":34963
	},
	{
		"buffer":0,
		"byteOffset":9816,
		"byteLength":45024,
		"target":34962,
		"byteStride":32
	}],
	"buffers":[{
		"uri":"data:application/octet-stream;base64,",
		"byteLength":54840
	}]
}